<svg width="24" height="24" viewBox="0 0 24 24" fill="none" xmlns="http://www.w3.org/2000/svg">
<path d="M20.7495 11.9995C20.7495 12.3731 20.5839 12.7196 20.427 12.9799C20.2577 13.2607 20.0301 13.5506 19.7803 13.8333C19.2793 14.4003 18.6256 15.0093 17.9913 15.5602C17.3532 16.1143 16.7173 16.6245 16.2423 16.9953C16.0044 17.181 15.8059 17.3324 15.6665 17.4377C15.5968 17.4904 15.5418 17.5316 15.5039 17.5598L15.4604 17.5922L15.4488 17.6007L15.4448 17.6037C15.1113 17.8493 14.6414 17.7784 14.3957 17.4449C14.15 17.1115 14.2212 16.642 14.5547 16.3963L14.5674 16.3869L14.6075 16.3571C14.6429 16.3307 14.6953 16.2915 14.7623 16.2409C14.8963 16.1396 15.0885 15.993 15.3193 15.8128C15.7818 15.4519 16.3959 14.959 17.0078 14.4276C17.6234 13.893 18.2197 13.3342 18.6562 12.8401C18.6838 12.8089 18.7105 12.7782 18.7363 12.748L3.99949 12.748C3.58528 12.748 3.24949 12.4122 3.24949 11.998C3.24949 11.5838 3.58528 11.248 3.99949 11.248L18.7338 11.248C18.7088 11.2188 18.6829 11.1891 18.6562 11.1589C18.2197 10.6648 17.6234 10.106 17.0078 9.57137C16.3959 9.04002 15.7818 8.54712 15.3193 8.18615C15.0885 8.00598 14.8963 7.85938 14.7623 7.75813C14.6953 7.70752 14.6429 7.66828 14.6075 7.64188L14.5674 7.61211L14.5547 7.60269C14.2212 7.35702 14.15 6.88754 14.3957 6.55406C14.6414 6.22056 15.1113 6.14967 15.4448 6.39533L15.4488 6.39829L15.4604 6.40684L15.5039 6.43923C15.5418 6.46742 15.5968 6.50859 15.6665 6.56126C15.8059 6.66657 16.0044 6.81801 16.2423 7.00371C16.7173 7.37448 17.3532 7.88469 17.9913 8.4388C18.6256 8.98966 19.2793 9.59865 19.7803 10.1657C20.0301 10.4484 20.2577 10.7383 20.427 11.0191C20.5829 11.2778 20.7475 11.6218 20.7495 11.9928" fill="white"/>
</svg>
