<svg xmlns="http://www.w3.org/2000/svg" width="128" height="128" fill="none" viewBox="0 0 128 128" id="responsive">
  <path fill="#000" d="M79.2857 96.1816C79.6802 96.1816 80 96.5014 80 96.8959V96.8959C80 99.2629 78.0812 101.182 75.7143 101.182L51.2857 101.182C48.9188 101.182 47 99.2629 47 96.8959V96.8959C47 96.5014 47.3198 96.1816 47.7143 96.1816L79.2857 96.1816Z"></path>
  <path stroke="#000" stroke-width="4" d="M80.5 40.1816H102C104.761 40.1816 107 42.4202 107 45.1816V97.1816H20V45.1816C20 42.4202 22.2386 40.1816 25 40.1816H47.5M118 97.1816C118.552 97.1816 119 97.6294 119 98.1816L119 100.182C119 103.495 116.314 106.182 113 106.182L14 106.182C10.6863 106.182 8 103.495 8 100.182L8 98.1816C8 97.6294 8.44771 97.1816 9 97.1816L118 97.1816z"></path>
  <path stroke="#000" stroke-linecap="round" stroke-width="4" d="M56 75H72M56 20V20C56 21.6569 57.3431 23 59 23H69C70.6569 23 72 21.6569 72 20V20"></path>
  <path stroke="#000" stroke-width="4" d="M75 19H53C50.2386 19 48 21.2386 48 24V76C48 78.7614 50.2386 81 53 81H75C77.7614 81 80 78.7614 80 76V61.5256V24C80 21.2386 77.7614 19 75 19Z"></path>
</svg>
