<svg xmlns="http://www.w3.org/2000/svg" viewBox="0 0 100 100" id="solar-system">
  <path d="M11.24 17.94c0 .43.23.82.61 1.02l4.08 2.23 2.23 4.08c.2.37.6.61 1.02.61s.82-.23 1.02-.61l2.23-4.08 4.08-2.23c.37-.2.61-.6.61-1.02s-.23-.82-.61-1.02l-4.08-2.23-2.23-4.08c-.2-.37-.6-.61-1.02-.61s-.82.23-1.02.61l-2.23 4.08-4.08 2.23c-.37.2-.61.6-.61 1.02zm6.1-1.37c.2-.11.36-.27.46-.46l1.37-2.51 1.37 2.51c.11.2.27.36.46.46l2.51 1.37-2.51 1.37c-.2.11-.36.27-.46.46l-1.37 2.51-1.37-2.51c-.11-.2-.27-.36-.46-.46l-2.51-1.37 2.51-1.37zM73.49 83.09l4.08 2.23 2.23 4.08c.2.37.6.61 1.02.61s.82-.23 1.02-.61l2.23-4.08 4.08-2.23c.37-.2.61-.6.61-1.02s-.23-.82-.61-1.02l-4.08-2.23-2.23-4.08c-.2-.37-.6-.61-1.02-.61s-.82.23-1.02.61l-2.23 4.08-4.08 2.23c-.37.2-.61.6-.61 1.02s.23.82.61 1.02zm5.5-2.39c.2-.11.36-.27.46-.46l1.37-2.51 1.37 2.51c.11.2.27.36.46.46l2.51 1.37-2.51 1.37c-.2.11-.36.27-.46.46l-1.37 2.51-1.37-2.51c-.11-.2-.27-.36-.46-.46l-2.51-1.37 2.51-1.37zM50 74.41c4.73 0 9.28-1.36 13.22-3.91.92.73 2.03 1.14 3.21 1.14 1.39 0 2.7-.54 3.68-1.52.98-.98 1.52-2.29 1.52-3.68 0-1.19-.41-2.3-1.14-3.21 2.55-3.94 3.91-8.49 3.91-13.22 0-13.46-10.95-24.41-24.41-24.41-4.73 0-9.28 1.36-13.22 3.91-.92-.73-2.03-1.14-3.21-1.14-1.39 0-2.7.54-3.68 1.52-.98.98-1.52 2.29-1.52 3.68 0 1.19.41 2.3 1.14 3.21-2.55 3.94-3.91 8.49-3.91 13.22 0 13.46 10.95 24.41 24.41 24.41zm18.47-5.94c-.54.54-1.26.84-2.03.84s-1.49-.3-2.03-.84c-1.12-1.12-1.12-2.94 0-4.06.54-.54 1.26-.84 2.03-.84s1.49.3 2.03.84h0c.54.54.84 1.26.84 2.03s-.3 1.49-.84 2.03zM31.54 31.53c.54-.54 1.26-.84 2.03-.84s1.49.3 2.03.84.84 1.26.84 2.03-.3 1.49-.84 2.03c-.54.54-1.26.84-2.03.84s-1.49-.3-2.03-.84c-.54-.54-.84-1.26-.84-2.03s.3-1.49.84-2.03zm-.21 6.71c.69.33 1.45.53 2.24.53 1.39 0 2.7-.54 3.68-1.52.98-.98 1.52-2.29 1.52-3.68 0-.79-.19-1.55-.53-2.24 3.52-2.22 7.55-3.4 11.75-3.4 12.17 0 22.08 9.9 22.08 22.08 0 4.2-1.18 8.24-3.4 11.76-.69-.33-1.45-.53-2.24-.53-1.39 0-2.7.54-3.68 1.52-1.6 1.6-1.92 3.98-1 5.92-3.52 2.22-7.56 3.41-11.76 3.41-12.17 0-22.08-9.9-22.08-22.08 0-4.2 1.18-8.24 3.4-11.76z"></path>
  <path d="M20.88,79.12c1.38,1.38,3.2,2.07,5.01,2.07,1.68,0,3.36-.6,4.69-1.79,5.77,3.82,12.45,5.85,19.41,5.85,19.44,0,35.26-15.82,35.26-35.26,0-6.96-2.03-13.65-5.85-19.41,2.46-2.78,2.37-7.05-.29-9.71-1.34-1.34-3.12-2.08-5.01-2.08-1.75,0-3.4,.64-4.69,1.79-5.77-3.82-12.45-5.85-19.41-5.85-19.44,0-35.26,15.82-35.26,35.26,0,6.96,2.03,13.65,5.85,19.41-2.46,2.78-2.37,7.05,.29,9.71Zm8.38-1.65c-1.86,1.86-4.88,1.86-6.73,0-1.86-1.86-1.86-4.88,0-6.73h0c1.86-1.86,4.88-1.86,6.73,0,.9,.9,1.39,2.09,1.39,3.37s-.49,2.47-1.39,3.37ZM70.74,22.53c.9-.9,2.09-1.39,3.37-1.39s2.47,.5,3.37,1.39c1.86,1.86,1.86,4.88,0,6.73-.9,.9-2.09,1.39-3.37,1.39s-2.47-.5-3.37-1.39c-1.86-1.86-1.86-4.88,0-6.73ZM17.07,50c0-18.16,14.77-32.93,32.93-32.93,6.43,0,12.6,1.86,17.94,5.34-1.52,2.7-1.14,6.2,1.15,8.5,1.34,1.34,3.12,2.08,5.01,2.08,1.24,0,2.43-.32,3.48-.92,3.48,5.34,5.34,11.51,5.34,17.94,0,18.16-14.77,32.93-32.93,32.93-6.43,0-12.6-1.86-17.94-5.34,.6-1.05,.92-2.24,.92-3.48,0-1.89-.74-3.67-2.08-5.01-2.3-2.3-5.79-2.68-8.49-1.16-3.48-5.34-5.34-11.51-5.34-17.94Z"></path>
  <path d="M50 58.42c4.64 0 8.42-3.78 8.42-8.42s-3.78-8.42-8.42-8.42-8.42 3.78-8.42 8.42 3.78 8.42 8.42 8.42zm0-14.52c3.36 0 6.09 2.73 6.09 6.09s-2.73 6.09-6.09 6.09-6.09-2.73-6.09-6.09 2.73-6.09 6.09-6.09zM50 41.24c.64 0 1.17-.52 1.17-1.17v-4.24c0-.64-.52-1.17-1.17-1.17s-1.17.52-1.17 1.17v4.24c0 .64.52 1.17 1.17 1.17zM50 58.76c-.64 0-1.17.52-1.17 1.17v4.24c0 .64.52 1.17 1.17 1.17s1.17-.52 1.17-1.17v-4.24c0-.64-.52-1.17-1.17-1.17zM35.83 51.17h4.24c.64 0 1.17-.52 1.17-1.17s-.52-1.17-1.17-1.17h-4.24c-.64 0-1.17.52-1.17 1.17s.52 1.17 1.17 1.17zM58.76 50c0 .64.52 1.17 1.17 1.17h4.24c.64 0 1.17-.52 1.17-1.17s-.52-1.17-1.17-1.17h-4.24c-.64 0-1.17.52-1.17 1.17z"></path>
  <path d="M42.16 43.8c.23.23.53.34.82.34s.6-.11.82-.34c.46-.46.46-1.19 0-1.65l-3-3c-.45-.45-1.19-.45-1.65 0-.46.45-.46 1.19 0 1.65l3 3zM57.84 56.2c-.45-.45-1.19-.45-1.65 0-.46.46-.46 1.19 0 1.65l3 3c.23.23.53.34.82.34s.6-.11.82-.34c.46-.45.46-1.19 0-1.65l-3-3zM57.02 44.15c.3 0 .6-.11.82-.34l3-3c.46-.45.46-1.19 0-1.65-.45-.45-1.19-.45-1.65 0l-3 3c-.46.46-.46 1.19 0 1.65.23.23.53.34.82.34zM42.16 56.2l-3 3c-.46.46-.46 1.19 0 1.65.23.23.53.34.82.34s.6-.11.82-.34l3-3c.46-.46.46-1.19 0-1.65-.45-.45-1.19-.45-1.65 0z"></path>
</svg>
